<svg width="128" height="128" xmlns="http://www.w3.org/2000/svg">

 <g>
  <title>background</title>
  <rect fill="#3d405b" id="canvas_background" height="130" width="130" y="-1" x="-1"/>
 </g>
 <g>
  <title>Layer 1</title>
  <circle fill="#81b29a" id="svg_2" r="64" cy="64" cx="64" class="st0"/>
  <path fill="#f2cc8f" id="svg_3" d="m65.76532,22.5c-12.1,4.3 -18.4,17.7 -14.1,29.8c3.4,9.5 12.3,15.4 21.8,15.4c0,0 11.6,32.1 12.6,35c1,2.9 3.2,4.9 5.2,5.6c2,0.7 5.7,2.1 7.5,-1.6c0.9,-1.8 1.8,-3.7 2.4,-5.2c0.7,-1.5 0.7,-3.7 0.1,-5.4c-0.6,-1.7 -1.2,-3.7 -1.2,-3.7s1,-2.1 1.6,-3.6c0.6,-1.6 0.1,-3.7 -1.5,-4.6c-0.5,-0.3 -1.1,-0.6 -1.7,-0.9c-1.3,-0.6 -2.1,-2.3 -1.5,-3.5c0.3,-0.6 0.6,-1.3 0.8,-1.9c0.7,-1.8 -0.2,-3.2 -2,-3.9c-0.8,-0.3 -1.6,-0.6 -2.3,-1c-1.3,-0.7 -1.9,-1.6 -2.5,-3.7c-0.6,-2.1 -2.6,-6.9 -2.6,-6.9c7.3,-6.1 10.4,-16.3 7,-25.8c-4.1,-12.2 -17.5,-18.5 -29.6,-14.1zm11.4,14.2c1.3,3.5 -0.6,7.4 -4.1,8.6c-3.5,1.3 -7.4,-0.6 -8.6,-4.1c-1.3,-3.5 0.6,-7.4 4.1,-8.6c3.5,-1.3 7.4,0.6 8.6,4.1z" class="st1"/>
  <path fill="#f2cd91" id="svg_4" d="m94.4,102.7c-2,-0.7 -4.2,-2.6 -5.2,-5.6c-1,-2.9 -12.6,-35 -12.6,-35c-9.5,0 -18.4,-6 -21.8,-15.4c-1.9,-5.3 -1.8,-10.9 0,-15.8c-4.3,6 -5.7,14 -3,21.5c3.4,9.5 12.3,15.4 21.8,15.4c0,0 11.6,32.1 12.6,35c1,2.9 3.2,4.9 5.2,5.6c2,0.7 5.7,2.1 7.5,-1.6c0.7,-1.5 1.5,-3 2.1,-4.4c-2,1.9 -4.9,0.8 -6.6,0.3z" class="st2"/>
  <path fill="#f2cd91" id="svg_5" d="m91,41.5c0,-8.1 -4.2,-15.3 -10.5,-19.4c-4.6,-1.4 -9.7,-1.4 -14.6,0.4c-12.1,4.3 -18.4,17.7 -14.1,29.8c1.7,4.7 4.7,8.4 8.4,11.1c2.4,0.8 4.9,1.3 7.6,1.3c12.8,0 23.2,-10.4 23.2,-23.2zm-17.7,3.8c-3.5,1.3 -7.4,-0.6 -8.6,-4.1c-1.3,-3.5 0.6,-7.4 4.1,-8.6c3.5,-1.3 7.4,0.6 8.6,4.1c1.2,3.5 -0.6,7.3 -4.1,8.6z" class="st2"/>
  <path fill="#6b3c1c" id="svg_6" d="m95.1,110c0,0 0,0 0,0c-1.4,0 -2.8,-0.5 -3.8,-0.8l-0.2,-0.1c-2,-0.7 -4.6,-2.7 -5.8,-6.2c-0.9,-2.7 -10.7,-29.7 -12.3,-34.3c-9.9,-0.3 -18.7,-6.7 -22,-16.1c-2.3,-6 -2,-12.6 0.8,-18.5c2.8,-5.9 7.6,-10.3 13.7,-12.5c2.6,-1 5.4,-1.4 8.2,-1.4c10.2,0 19.4,6.5 22.8,16.1c3.4,9.3 0.6,19.8 -6.8,26.4c0.6,1.4 1.8,4.6 2.3,6.3c0.6,2.1 1.1,2.6 2,3.1c0.4,0.2 1,0.5 1.6,0.7l0.5,0.2c2.4,1 3.4,3 2.5,5.2c-0.2,0.6 -0.5,1.3 -0.8,1.9c-0.3,0.7 0.2,1.8 1,2.2c0.7,0.4 1.3,0.7 1.8,0.9c1.9,1.1 2.7,3.7 1.9,5.8c-0.5,1.2 -1.2,2.7 -1.5,3.3c0.2,0.7 0.7,2.1 1.1,3.3c0.7,1.9 0.6,4.4 -0.1,6.1c-0.9,2 -1.7,3.7 -2.5,5.2c-0.7,2.2 -2.3,3.2 -4.4,3.2zm-21.4,-87.9c-2.6,0 -5.1,0.4 -7.5,1.3c-5.6,2 -10.1,6.1 -12.6,11.5c-2.5,5.4 -2.8,11.4 -0.8,17c3.2,8.8 11.5,14.7 20.9,14.8c0.4,0 0.8,0.3 0.9,0.7c0.5,1.3 11.6,32.1 12.6,35c0.9,2.8 3,4.4 4.5,4.9l0.3,0.1c0.9,0.3 2.1,0.7 3.2,0.7l0,0c1.3,0 2.2,-0.6 2.9,-1.9c0.7,-1.5 1.5,-3.2 2.4,-5.2c0.5,-1.2 0.6,-3.2 0.1,-4.7c-0.6,-1.7 -1.2,-3.8 -1.2,-3.8c-0.1,-0.2 -0.1,-0.5 0.1,-0.7c0,0 1,-2.1 1.6,-3.6c0.4,-1.1 0.1,-2.7 -1.1,-3.4c-0.4,-0.2 -0.9,-0.5 -1.6,-0.9c-1.8,-0.9 -2.8,-3.1 -2,-4.8c0.3,-0.6 0.5,-1.2 0.8,-1.8c0.5,-1.2 0,-2.1 -1.4,-2.7l-0.8,-0.1c-0.6,-0.3 -1.3,-0.5 -1.8,-0.8c-1.7,-0.9 -2.3,-2.2 -3,-4.3c-0.6,-2.1 -2.5,-6.7 -2.5,-6.8c-0.2,-0.4 0,-0.9 0.3,-1.1c7.2,-6 9.9,-15.9 6.7,-24.7c-3.2,-8.8 -11.6,-14.7 -21,-14.7zm-2.7,24.9c-3.4,0 -6.4,-2.1 -7.5,-5.3c-0.7,-2 -0.6,-4.2 0.3,-6.1c0.9,-1.9 2.5,-3.4 4.5,-4.1c0.8,-0.4 1.7,-0.5 2.7,-0.5c3.4,0 6.4,2.1 7.5,5.3c0.7,2 0.6,4.2 -0.3,6.1c-0.9,1.9 -2.5,3.4 -4.5,4.1c-0.9,0.3 -1.8,0.5 -2.7,0.5zm0,-14c-0.7,0 -1.4,0.1 -2,0.4c-1.5,0.5 -2.7,1.6 -3.4,3.1c-0.7,1.4 -0.8,3.1 -0.2,4.6c0.9,2.4 3.1,4 5.6,4c0.7,0 1.4,-0.1 2,-0.4c1.5,-0.5 2.7,-1.6 3.4,-3.1c0.7,-1.4 0.8,-3.1 0.2,-4.6c-0.9,-2.4 -3.1,-4 -5.6,-4z" class="st3"/>
  <path fill="#f2cc8f" id="svg_7" d="m73.76532,20.7c-10.8,-7.1 -25.2,-4.1 -32.3,6.7c-5.5,8.4 -4.9,19.1 0.8,26.7c0,0 -18.6,28.5 -20.4,31.1c-1.8,2.5 -2,5.5 -1.3,7.5c0.7,2 1.8,5.8 5.8,5.1c2,-0.4 4.1,-0.8 5.6,-1.2c1.6,-0.4 3.4,-1.7 4.4,-3.2c1,-1.5 2.2,-3.2 2.2,-3.2s2.3,-0.5 3.9,-0.9c1.6,-0.4 3,-2.1 2.8,-3.9c-0.1,-0.6 -0.2,-1.2 -0.3,-1.9c-0.3,-1.4 0.6,-3 1.9,-3.3c0.7,-0.2 1.4,-0.3 2,-0.5c1.9,-0.5 2.4,-2.1 2,-3.9c-0.2,-0.8 -0.5,-1.7 -0.6,-2.4c-0.2,-1.4 0.2,-2.4 1.5,-4.2c1.3,-1.8 4,-6.2 4,-6.2c9.3,2.2 19.3,-1.5 24.8,-9.9c7,-10.8 4,-25.3 -6.8,-32.4zm-4.4,17.7c-2,3.1 -6.2,4 -9.3,1.9c-3.1,-2 -4,-6.2 -1.9,-9.3c2,-3.1 6.2,-4 9.3,-1.9c3.1,2 3.9,6.2 1.9,9.3z" class="st1"/>
  <path fill="#f4b10b" id="svg_8" d="m40.1,49.8c-0.2,-0.3 -0.4,-0.5 -0.5,-0.8c0.1,0.3 0.3,0.6 0.4,1c0.1,-0.1 0.1,-0.2 0.1,-0.2z" class="st2"/>
  <path fill="#f2cd91" id="svg_9" d="m80.4,27c2.8,6.9 2.3,15 -2.1,21.6c-5.5,8.5 -16,12.6 -25.3,10.4c0,0 -2.2,4 -3.5,5.8c-1.3,1.8 -1.7,2.8 -1.5,4.2c0.1,0.7 0.4,1.6 0.6,2.4c0.5,1.8 -0.1,3.4 -2,3.9c-0.6,0.2 -1.3,0.3 -2,0.5c-1.3,0.3 -2.2,1.9 -1.9,3.3c0.1,0.7 0.2,1.3 0.3,1.9c0.2,1.8 -1.2,3.5 -2.8,3.9c-1.6,0.4 -3.9,0.9 -3.9,0.9s-1.3,1.8 -2.2,3.2c-1,1.5 -2.8,2.8 -4.4,3.2c-1.6,0.4 -3.6,0.8 -5.6,1.2c-1.5,0.3 -2.6,-0.1 -3.5,-0.8c0,0 0,0 0,0.1c0.7,2 1.8,5.8 5.8,5.1c2,-0.4 4.1,-0.8 5.6,-1.2c1.6,-0.4 3.4,-1.7 4.4,-3.2c1,-1.5 2.2,-3.2 2.2,-3.2s2.3,-0.5 3.9,-0.9c1.6,-0.4 3,-2.1 2.8,-3.9c-0.1,-0.6 -0.2,-1.2 -0.3,-1.9c-0.3,-1.4 0.6,-3 1.9,-3.3c0.7,-0.2 1.4,-0.3 2,-0.5c1.9,-0.5 2.4,-2.1 2,-3.9c-0.2,-0.8 -0.5,-1.7 -0.6,-2.4c-0.2,-1.4 0.2,-2.4 1.5,-4.2c1.3,-1.8 4,-6.2 4,-6.2c9.3,2.2 19.3,-1.5 24.8,-9.9c5.4,-8.2 5,-18.5 -0.2,-26.1z" class="st2"/>
  <path fill="#6b3c1c" id="svg_10" d="m25.5,98.9c-3.8,0 -5,-3.6 -5.7,-5.6l-0.1,-0.3c-0.7,-2 -0.7,-5.3 1.5,-8.4c1.6,-2.3 17.5,-26.4 20.2,-30.5c-5.7,-8.1 -5.9,-19 -0.4,-27.3c4.5,-6.9 12.2,-11 20.5,-11c4.8,0 9.4,1.4 13.4,4c5.5,3.6 9.2,9 10.5,15.4c1.3,6.4 0.1,12.8 -3.5,18.3c-4.5,6.9 -12.2,11 -20.5,11l0,0c-1.6,0 -3.3,-0.2 -4.9,-0.5c-0.8,1.3 -2.6,4.3 -3.7,5.7c-1.3,1.7 -1.5,2.5 -1.3,3.5c0.1,0.5 0.2,1.1 0.4,1.7l0.2,0.6c0.7,2.5 -0.4,4.5 -2.7,5.1c-0.6,0.2 -1.4,0.4 -2,0.5c-0.8,0.2 -1.4,1.2 -1.2,2.2c0.2,0.8 0.3,1.4 0.3,2c0.3,2.2 -1.3,4.4 -3.5,5c-1.3,0.3 -2.8,0.7 -3.6,0.8c-0.4,0.6 -1.3,1.8 -2,2.9c-1.2,1.7 -3.2,3.2 -5,3.6c-2.1,0.5 -4,0.9 -5.7,1.2c-0.4,0.1 -0.8,0.1 -1.2,0.1zm36,-81c-7.6,0 -14.6,3.8 -18.8,10.1c-5.2,7.8 -4.9,18.1 0.8,25.6c0.3,0.3 0.3,0.8 0,1.1c-0.8,1.2 -18.8,28.6 -20.6,31.1c-1.7,2.5 -1.7,5.1 -1.2,6.6l0.1,0.3c0.7,2.2 1.6,4.2 3.8,4.2c0.3,0 0.5,0 0.8,-0.1c1.6,-0.3 3.5,-0.7 5.6,-1.2c1.3,-0.3 2.9,-1.5 3.8,-2.7c1,-1.5 2.3,-3.3 2.3,-3.3c0.1,-0.2 0.4,-0.4 0.6,-0.4c0,0 2.3,-0.5 3.8,-0.9c1.1,-0.3 2.2,-1.5 2.1,-2.9c-0.1,-0.5 -0.2,-1.1 -0.3,-1.8c-0.4,-2 0.8,-4.1 2.7,-4.5c0.6,-0.1 1.3,-0.3 2,-0.5c1.2,-0.3 1.7,-1.3 1.3,-2.7l-0.1,-0.6c-0.2,-0.7 -0.4,-1.3 -0.4,-1.9c-0.3,-1.9 0.4,-3.2 1.7,-5c1.3,-1.7 3.9,-6.1 3.9,-6.1c0.2,-0.4 0.7,-0.6 1.1,-0.5c1.7,0.4 3.4,0.6 5.2,0.6c7.6,0 14.6,-3.8 18.8,-10.1c3.3,-5 4.4,-10.9 3.2,-16.8c-1.2,-5.8 -4.7,-10.9 -9.7,-14.1c-3.8,-2.2 -8.1,-3.5 -12.5,-3.5zm2.5,25.1c-1.6,0 -3.1,-0.5 -4.4,-1.3c-1.8,-1.2 -3,-3 -3.4,-5.1c-0.4,-2.1 0,-4.2 1.1,-6c1.5,-2.3 4,-3.6 6.7,-3.6c1.6,0 3.1,0.5 4.4,1.3c1.8,1.2 3,3 3.4,5.1c0.4,2.1 0,4.2 -1.1,6c-1.5,2.3 -4,3.6 -6.7,3.6zm0,-14c-2,0 -3.9,1 -5,2.7c-0.9,1.3 -1.2,2.9 -0.9,4.5c0.3,1.6 1.2,2.9 2.6,3.8c1,0.6 2.1,1 3.3,1c2,0 3.9,-1 5,-2.7c0.9,-1.3 1.2,-2.9 0.9,-4.5c-0.3,-1.6 -1.2,-2.9 -2.6,-3.8c-1,-0.7 -2.1,-1 -3.3,-1z" class="st3"/>
  <path fill="#ffffff" id="svg_11" d="m42.1,41c-0.6,0 -1.1,-0.4 -1.1,-1c0,-3 0.7,-5.8 2,-8.5c0.2,-0.5 0.9,-0.7 1.4,-0.5c0.5,0.2 0.8,0.8 0.5,1.3c-1.2,2.4 -1.8,5 -1.8,7.7c0,0.6 -0.5,1 -1,1z" class="st4"/>
  <path fill="#ffffff" id="svg_12" d="m79.1,34c-0.4,0 -0.7,-0.2 -0.9,-0.6c-0.5,-1.4 -1.2,-2.7 -2.1,-3.9c-0.3,-0.4 -0.2,-1 0.2,-1.3c0.4,-0.3 1,-0.2 1.3,0.2c1,1.4 1.7,2.8 2.3,4.4c0.2,0.5 -0.1,1 -0.6,1.2c0,0 -0.1,0 -0.2,0z" class="st4"/>
  <path fill="#ffffff" id="svg_13" d="m48,27c-0.3,0 -0.6,-0.1 -0.8,-0.4c-0.4,-0.4 -0.3,-1.1 0.1,-1.5c3.8,-3.3 8.7,-5.1 13.7,-5.1c0.6,0 1,0.5 1,1c0,0.6 -0.5,1 -1,1c-4.5,0 -8.9,1.7 -12.3,4.7c-0.2,0.2 -0.4,0.3 -0.7,0.3z" class="st4"/>
  <path fill="#ffffff" id="svg_14" d="m25.2,87.8c-0.2,0 -0.4,-0.1 -0.5,-0.2c-0.5,-0.3 -0.6,-0.9 -0.3,-1.4l3.8,-5.9c0.3,-0.5 0.9,-0.6 1.4,-0.3c0.5,0.3 0.6,0.9 0.3,1.4l-3.9,6c-0.2,0.3 -0.5,0.4 -0.8,0.4z" class="st4"/>
  <path fill="#ffffff" id="svg_15" d="m32.6,76.3c-0.2,0 -0.4,-0.1 -0.5,-0.2c-0.5,-0.3 -0.6,-0.9 -0.3,-1.4l11.3,-17.3c0.3,-0.5 0.9,-0.6 1.4,-0.3c0.5,0.3 0.6,0.9 0.3,1.4l-11.3,17.4c-0.2,0.2 -0.5,0.4 -0.9,0.4z" class="st4"/>
  <path fill="#ffffff" id="svg_16" d="m92.1,77c-0.1,0 -0.1,0 -0.2,0c-0.1,0 -3.4,-0.8 -4.3,-3.4c-0.8,-2.2 -2.5,-6.8 -2.5,-6.8l1.8,-0.7c0,0 1.7,4.7 2.5,6.8c0.5,1.3 2.3,2.1 3,2.2c0.5,0.1 0.8,0.7 0.7,1.2c-0.2,0.4 -0.6,0.7 -1,0.7z" class="st4"/>
  <path fill="#ffffff" id="svg_17" d="m97,88c-0.2,0 -0.3,0 -0.5,-0.1l-2.1,-1.3c-0.5,-0.3 -0.6,-0.9 -0.3,-1.4c0.3,-0.5 0.9,-0.6 1.3,-0.3l2.1,1.3c0.5,0.3 0.6,0.9 0.3,1.4c-0.1,0.2 -0.4,0.4 -0.8,0.4z" class="st4"/>
  <path fill="#6b3c1c" id="svg_18" d="m70.2,34.6c-1.7,0.2 -3.5,0.4 -5.2,0.4c-16,0 -29.2,-11.8 -31.6,-27.2c-0.6,0.3 -1.2,0.7 -1.8,1.1c2.8,15.9 16.7,28.1 33.4,28.1c1.8,0 3.7,-0.2 5.5,-0.4c0.5,-0.1 0.9,-0.6 0.8,-1.2c-0.1,-0.6 -0.6,-0.9 -1.1,-0.8z" class="st3"/>
  <path fill="#6b3c1c" id="svg_19" d="m96.6,9c-1.1,6.3 -4.2,12.1 -9.1,16.7c-0.4,0.4 1.2,1.5 1.4,1.4c5,-4.7 8.3,-10.6 9.6,-17c-0.7,-0.4 -1.3,-0.8 -1.9,-1.1z" class="st3"/>
  <path fill="#ffffff" id="svg_20" d="m81.4,21.3c0,-0.4 -0.4,-0.8 -1,-0.9l-4.8,-0.8c-0.5,-0.1 -1.1,-0.6 -1.2,-1.2l-0.8,-4.8c-0.1,-0.5 -0.5,-1 -0.9,-1c-0.4,0 -0.8,0.4 -0.9,1l-0.8,4.8c-0.1,0.5 -0.6,1.1 -1.2,1.2l-4.8,0.8c-0.5,0.1 -1,0.5 -1,0.9c0,0.4 0.4,0.8 1,0.9l4.7,0.6c0.5,0.1 1.1,0.6 1.2,1.1l0.9,5c0.1,0.5 0.5,1 0.9,1c0.4,0 0.8,-0.4 0.9,-1l0.9,-5.1c0.1,-0.5 0.6,-1 1.2,-1.1l4.7,-0.6c0.5,0.1 1,-0.4 1,-0.8z" class="st4"/>
 </g>
</svg>