<?xml version="1.0" ?><svg data-name="Layer 1" id="Layer_1" viewBox="0 0 100 100" xmlns="http://www.w3.org/2000/svg"><title/><path d="M36,56h8a1,1,0,0,0,1-1V49a1,1,0,0,0-1-1H36a1,1,0,0,0-1,1v6A1,1,0,0,0,36,56Zm7-2H41V50h2Zm-6-4h2v4H37Z"/><path d="M36,77h8a1,1,0,0,0,1-1V70a1,1,0,0,0-1-1H36a1,1,0,0,0-1,1v6A1,1,0,0,0,36,77Zm7-2H41V71h2Zm-6-4h2v4H37Z"/><path d="M64,48H56a1,1,0,0,0-1,1v6a1,1,0,0,0,1,1h8a1,1,0,0,0,1-1V49A1,1,0,0,0,64,48Zm-7,2h2v4H57Zm6,4H61V50h2Z"/><path d="M54,33H46a1,1,0,0,0-1,1v6a1,1,0,0,0,1,1h8a1,1,0,0,0,1-1V34A1,1,0,0,0,54,33Zm-7,2h2v4H47Zm6,4H51V35h2Z"/><path d="M75,22H54.414l-3.707-3.707a1,1,0,0,0-1.414,0L45.586,22H25a1,1,0,0,0-1,1V44c0,.013.007.023.007.036a.985.985,0,0,0,.069.347l0,0c0,.009.01.015.014.024a.984.984,0,0,0,.179.266.947.947,0,0,0,.076.069.982.982,0,0,0,.208.14.954.954,0,0,0,.1.045A.987.987,0,0,0,25,45h2V81a1,1,0,0,0,1,1H72a1,1,0,0,0,1-1V45h2a.987.987,0,0,0,.349-.07.952.952,0,0,0,.1-.045.983.983,0,0,0,.208-.14.87.87,0,0,0,.255-.334c0-.009.011-.016.015-.025l0,0a.987.987,0,0,0,.069-.347c0-.013.007-.023.007-.036V23A1,1,0,0,0,75,22Zm-1,2v1H63a1,1,0,0,0,0,2H74v3H68.134a1,1,0,0,0,0,2H74v3H71.6a1,1,0,0,0,0,2H74v4.586L56.414,24ZM50,20.414l3.292,3.292,0,0L72.586,43H69.414L50.707,24.293a1,1,0,0,0-1.414,0L30.586,43H27.414L46.706,23.708l0,0ZM71,64H29V62H71Zm-8,5H57a1,1,0,0,0-1,1V80H53V66H67V80H64V70A1,1,0,0,0,63,69ZM47,66V80H33V66Zm4-6H49V45h2Zm1-17H33.414L50,26.414,66.586,43Zm-5,2V60H33V45Zm6,15V45H67V60ZM43.586,24,26,41.586V37h2.4a1,1,0,0,0,0-2H26V32h5.866a1,1,0,1,0,0-2H26V27H37a1,1,0,0,0,0-2H26V24ZM31,45V60H29V45ZM29,80V66h2V80Zm20,0V66h2V80Zm9,0V71h4v9Zm13,0H69V66h2Zm0-20H69V45h2Z"/></svg>