<svg width="144.083" height="144" xmlns="http://www.w3.org/2000/svg">

 <g>
  <title>background</title>
  <rect fill="none" id="canvas_background" height="402" width="582" y="-1" x="-1"/>
 </g>
 <g>
  <title>Layer 1</title>
  <path fill="#3d405b" id="svg_1" d="m134.583,56.649l-22.529,-24.506c-0.568,-0.618 -1.369,-0.97 -2.209,-0.97l-1.682,0c-0.84,0 -1.641,0.352 -2.209,0.97l-15.431,16.786l-15.433,-16.785c-0.568,-0.618 -1.369,-0.97 -2.208,-0.97l-1.682,0c-0.839,0 -1.64,0.352 -2.208,0.97l-15.432,16.785l-15.432,-16.785c-0.568,-0.618 -1.369,-0.97 -2.208,-0.97l-1.682,0c-0.839,0 -1.641,0.352 -2.208,0.97l-22.53,24.505c-1.121,1.219 -1.042,3.117 0.177,4.238l3.863,3.554l0,45.385c0,1.657 1.343,3 3,3l37,0l37,0l36.999,0c1.657,0 3,-1.343 3,-3l0,-45.383l3.865,-3.556c1.22,-1.121 1.3,-3.018 0.179,-4.238zm-99.504,-18.957l16.273,17.7c1.137,1.236 3.28,1.236 4.417,0l16.273,-17.7l16.272,17.7c1.137,1.236 3.281,1.236 4.417,0l16.272,-17.7l19.132,20.81l-1.678,1.544l-15.245,-16.579c-0.567,-0.618 -1.369,-0.969 -2.208,-0.969s-1.641,0.352 -2.208,0.969l-16.273,17.697l-16.273,-17.697c-0.568,-0.618 -1.369,-0.969 -2.208,-0.969c-0.839,0 -1.64,0.352 -2.208,0.969l-16.274,17.697l-16.272,-17.697c-0.568,-0.618 -1.369,-0.969 -2.208,-0.969s-1.64,0.352 -2.208,0.969l-15.247,16.579l-1.678,-1.544l19.132,-20.81zm5.837,69.134l-11.75,0l0,-16.623c0,-3.239 2.636,-5.875 5.875,-5.875s5.875,2.636 5.875,5.875l0,16.623zm6,0l0,-16.623c0,-6.548 -5.327,-11.875 -11.875,-11.875s-11.875,5.327 -11.875,11.875l0,16.623l-3.625,0l0,-40.1c0.169,-0.121 0.327,-0.256 0.47,-0.411l15.069,-16.385l15.067,16.386c0.12,0.13 0.255,0.242 0.394,0.348l0,40.163l-3.625,0l0,-0.001zm31.001,0l-11.75,0l0,-16.623c0,-3.239 2.636,-5.875 5.875,-5.875s5.875,2.636 5.875,5.875l0,16.623zm6,0l0,-16.623c0,-6.548 -5.327,-11.875 -11.875,-11.875s-11.875,5.327 -11.875,11.875l0,16.623l-3.626,0l0,-40.128c0.154,-0.114 0.301,-0.239 0.433,-0.382l15.068,-16.386l15.066,16.386c0.132,0.143 0.278,0.268 0.432,0.381l0,40.129l-3.623,0zm30.998,0l-11.75,0l0,-16.623c0,-3.239 2.636,-5.875 5.875,-5.875s5.875,2.636 5.875,5.875l0,16.623zm6,0l0,-16.623c0,-6.548 -5.327,-11.875 -11.875,-11.875s-11.875,5.327 -11.875,11.875l0,16.623l-3.624,0l0,-40.161c0.14,-0.106 0.275,-0.218 0.396,-0.349l15.068,-16.386l15.067,16.386c0.142,0.154 0.3,0.29 0.468,0.409l0,40.101l-3.625,0z"/>
  <rect fill="#3d405b" id="svg_2" y="68.5" x="27.791" width="14.5" height="6"/>
  <rect fill="#3d405b" id="svg_3" y="68.5" x="64.791" width="14.5" height="6"/>
  <rect fill="#3d405b" id="svg_4" y="68.5" x="101.79" width="14.5" height="6"/>
 </g>
</svg>